<mxfile host="app.diagrams.net" modified="2023-08-10T08:52:17.327Z" agent="Mozilla/5.0 (X11; Linux x86_64; rv:109.0) Gecko/20100101 Firefox/116.0" etag="IPL0RYVlOSVwCMdyWwVN" version="21.6.7" type="github">
  <diagram name="Page-1" id="IfO4KlaMefnt0QP_XdHf">
    <mxGraphModel dx="1659" dy="878" grid="0" gridSize="10" guides="1" tooltips="1" connect="1" arrows="1" fold="1" page="0" pageScale="1" pageWidth="827" pageHeight="1169" math="0" shadow="0">
      <root>
        <mxCell id="0" />
        <mxCell id="1" parent="0" />
        <mxCell id="3x7R4wl11121WuhaWvUq-5" value="&lt;div style=&quot;font-size: 20px;&quot;&gt;&lt;b style=&quot;font-size: 20px;&quot;&gt;&lt;font color=&quot;#3d3846&quot; style=&quot;font-size: 20px;&quot;&gt;Systems of Record&lt;/font&gt;&lt;/b&gt;&lt;br style=&quot;font-size: 20px;&quot;&gt;&lt;/div&gt;" style="rounded=1;whiteSpace=wrap;html=1;align=center;verticalAlign=top;dashed=1;dashPattern=1 2;fontFamily=Montserrat;fontSource=https%3A%2F%2Ffonts.googleapis.com%2Fcss%3Ffamily%3DMontserrat;fontSize=20;" parent="1" vertex="1">
          <mxGeometry x="280" y="890" width="680" height="150" as="geometry" />
        </mxCell>
        <mxCell id="ulQrxE13SRcMPfscdwj9-1" value="&lt;font style=&quot;font-size: 15px;&quot; color=&quot;#ffffff&quot;&gt;&lt;span style=&quot;font-size: 15px;&quot;&gt;iPMs&lt;/span&gt;&lt;/font&gt;" style="whiteSpace=wrap;html=1;aspect=fixed;fillColor=#1a5fb4;fontFamily=Montserrat;fontSource=https%3A%2F%2Ffonts.googleapis.com%2Fcss%3Ffamily%3DMontserrat;fontStyle=1;fontSize=15;" parent="1" vertex="1">
          <mxGeometry x="310" y="929" width="95" height="95" as="geometry" />
        </mxCell>
        <mxCell id="ulQrxE13SRcMPfscdwj9-2" value="&lt;font style=&quot;font-size: 15px;&quot; color=&quot;#ffffff&quot;&gt;&lt;span style=&quot;font-size: 15px;&quot;&gt;IHI&lt;/span&gt;&lt;/font&gt;" style="whiteSpace=wrap;html=1;aspect=fixed;fillColor=#1a5fb4;fontFamily=Montserrat;fontSource=https%3A%2F%2Ffonts.googleapis.com%2Fcss%3Ffamily%3DMontserrat;fontStyle=1;fontSize=15;" parent="1" vertex="1">
          <mxGeometry x="412.5" y="929" width="95" height="95" as="geometry" />
        </mxCell>
        <mxCell id="ulQrxE13SRcMPfscdwj9-3" value="Healthlink" style="whiteSpace=wrap;html=1;aspect=fixed;fillColor=#1a5fb4;fontColor=#ffffff;fontSize=15;fontStyle=1;fontFamily=Montserrat;fontSource=https%3A%2F%2Ffonts.googleapis.com%2Fcss%3Ffamily%3DMontserrat;" parent="1" vertex="1">
          <mxGeometry x="515" y="929" width="95" height="95" as="geometry" />
        </mxCell>
        <mxCell id="ulQrxE13SRcMPfscdwj9-4" value="HIPE" style="whiteSpace=wrap;html=1;aspect=fixed;fillColor=#1a5fb4;fontColor=#ffffff;fontSize=15;fontStyle=1;fontFamily=Montserrat;fontSource=https%3A%2F%2Ffonts.googleapis.com%2Fcss%3Ffamily%3DMontserrat;" parent="1" vertex="1">
          <mxGeometry x="718" y="929" width="95" height="95" as="geometry" />
        </mxCell>
        <mxCell id="ulQrxE13SRcMPfscdwj9-36" value="Patient" style="rounded=0;whiteSpace=wrap;html=1;fillColor=#e1d5e7;strokeColor=#9673a6;" parent="1" vertex="1">
          <mxGeometry x="990" y="429.5" width="120" height="30" as="geometry" />
        </mxCell>
        <mxCell id="ulQrxE13SRcMPfscdwj9-37" value="Problems" style="rounded=0;whiteSpace=wrap;html=1;fillColor=#e1d5e7;strokeColor=#9673a6;" parent="1" vertex="1">
          <mxGeometry x="990" y="469.5" width="120" height="30" as="geometry" />
        </mxCell>
        <mxCell id="ulQrxE13SRcMPfscdwj9-38" value="Procedures" style="rounded=0;whiteSpace=wrap;html=1;fillColor=#e1d5e7;strokeColor=#9673a6;" parent="1" vertex="1">
          <mxGeometry x="990" y="509.5" width="120" height="30" as="geometry" />
        </mxCell>
        <mxCell id="ulQrxE13SRcMPfscdwj9-39" value="Encounters" style="rounded=0;whiteSpace=wrap;html=1;fillColor=#e1d5e7;strokeColor=#9673a6;" parent="1" vertex="1">
          <mxGeometry x="990" y="549.5" width="120" height="30" as="geometry" />
        </mxCell>
        <mxCell id="ulQrxE13SRcMPfscdwj9-40" value="Appointments" style="rounded=0;whiteSpace=wrap;html=1;fillColor=#e1d5e7;strokeColor=#9673a6;" parent="1" vertex="1">
          <mxGeometry x="990" y="589.5" width="120" height="30" as="geometry" />
        </mxCell>
        <mxCell id="ulQrxE13SRcMPfscdwj9-41" value="Orders" style="rounded=0;whiteSpace=wrap;html=1;fillColor=#e1d5e7;strokeColor=#9673a6;" parent="1" vertex="1">
          <mxGeometry x="990" y="629.5" width="120" height="30" as="geometry" />
        </mxCell>
        <mxCell id="ulQrxE13SRcMPfscdwj9-42" value="Results" style="rounded=0;whiteSpace=wrap;html=1;fillColor=#e1d5e7;strokeColor=#9673a6;" parent="1" vertex="1">
          <mxGeometry x="990" y="669.5" width="120" height="30" as="geometry" />
        </mxCell>
        <mxCell id="ulQrxE13SRcMPfscdwj9-43" value="Imaging" style="rounded=0;whiteSpace=wrap;html=1;fillColor=#e1d5e7;strokeColor=#9673a6;" parent="1" vertex="1">
          <mxGeometry x="990" y="709.5" width="120" height="30" as="geometry" />
        </mxCell>
        <mxCell id="ulQrxE13SRcMPfscdwj9-44" value="Medication" style="rounded=0;whiteSpace=wrap;html=1;fillColor=#e1d5e7;strokeColor=#9673a6;" parent="1" vertex="1">
          <mxGeometry x="990" y="749.5" width="120" height="30" as="geometry" />
        </mxCell>
        <mxCell id="ulQrxE13SRcMPfscdwj9-45" value="PCRS" style="whiteSpace=wrap;html=1;aspect=fixed;fillColor=#1a5fb4;fontColor=#ffffff;fontSize=15;fontStyle=1;fontFamily=Montserrat;fontSource=https%3A%2F%2Ffonts.googleapis.com%2Fcss%3Ffamily%3DMontserrat;" parent="1" vertex="1">
          <mxGeometry x="819" y="929" width="95" height="95" as="geometry" />
        </mxCell>
        <mxCell id="ulQrxE13SRcMPfscdwj9-49" value="Observations" style="rounded=0;whiteSpace=wrap;html=1;fillColor=#e1d5e7;strokeColor=#9673a6;" parent="1" vertex="1">
          <mxGeometry x="990" y="789.5" width="120" height="30" as="geometry" />
        </mxCell>
        <mxCell id="ulQrxE13SRcMPfscdwj9-50" value="Care Plans" style="rounded=0;whiteSpace=wrap;html=1;fillColor=#e1d5e7;strokeColor=#9673a6;" parent="1" vertex="1">
          <mxGeometry x="990" y="829.5" width="120" height="30" as="geometry" />
        </mxCell>
        <mxCell id="ulQrxE13SRcMPfscdwj9-59" value="Referrals" style="rounded=0;whiteSpace=wrap;html=1;fillColor=#e1d5e7;strokeColor=#9673a6;" parent="1" vertex="1">
          <mxGeometry x="990" y="869.5" width="120" height="30" as="geometry" />
        </mxCell>
        <mxCell id="ulQrxE13SRcMPfscdwj9-60" value="Documents" style="rounded=0;whiteSpace=wrap;html=1;fillColor=#e1d5e7;strokeColor=#9673a6;" parent="1" vertex="1">
          <mxGeometry x="990" y="909.5" width="120" height="30" as="geometry" />
        </mxCell>
        <mxCell id="ulQrxE13SRcMPfscdwj9-67" value="COVAX" style="whiteSpace=wrap;html=1;aspect=fixed;fillColor=#1a5fb4;fontColor=#ffffff;fontSize=15;fontStyle=1;fontFamily=Montserrat;fontSource=https%3A%2F%2Ffonts.googleapis.com%2Fcss%3Ffamily%3DMontserrat;" parent="1" vertex="1">
          <mxGeometry x="617" y="929" width="95" height="95" as="geometry" />
        </mxCell>
        <mxCell id="3x7R4wl11121WuhaWvUq-10" value="&lt;font size=&quot;1&quot; data-font-src=&quot;https://fonts.googleapis.com/css?family=Montserrat&quot; face=&quot;Montserrat&quot; color=&quot;#ffffff&quot;&gt;&lt;b style=&quot;font-size: 15px;&quot;&gt;Integrate&lt;/b&gt;&lt;/font&gt;" style="html=1;shadow=0;dashed=0;align=center;verticalAlign=middle;shape=mxgraph.arrows2.arrow;dy=0.6;dx=40;notch=0;rotation=-90;fillColor=#1a5fb4;" parent="1" vertex="1">
          <mxGeometry x="93.5" y="854.5" width="281" height="85" as="geometry" />
        </mxCell>
        <mxCell id="3x7R4wl11121WuhaWvUq-11" value="&lt;div style=&quot;font-size: 20px;&quot;&gt;&lt;font color=&quot;#3d3846&quot; style=&quot;font-size: 20px;&quot;&gt;&lt;span style=&quot;font-size: 20px;&quot;&gt;Integration Services&lt;/span&gt;&lt;/font&gt;&lt;br style=&quot;font-size: 20px;&quot;&gt;&lt;/div&gt;" style="rounded=1;whiteSpace=wrap;html=1;align=center;verticalAlign=top;dashed=1;dashPattern=1 2;fontFamily=Montserrat;fontSource=https%3A%2F%2Ffonts.googleapis.com%2Fcss%3Ffamily%3DMontserrat;fontSize=20;fillColor=#99c1f1;fontStyle=1" parent="1" vertex="1">
          <mxGeometry x="277.5" y="750" width="680" height="130" as="geometry" />
        </mxCell>
        <mxCell id="3x7R4wl11121WuhaWvUq-13" value="Real Time Processing" style="strokeWidth=1;html=1;shape=mxgraph.flowchart.terminator;whiteSpace=wrap;fillColor=#62a0ea;strokeColor=#6c8ebf;fontFamily=Montserrat;fontSource=https%3A%2F%2Ffonts.googleapis.com%2Fcss%3Ffamily%3DMontserrat;fontSize=15;fontColor=#ffffff;" parent="1" vertex="1">
          <mxGeometry x="289" y="789.5" width="130" height="65" as="geometry" />
        </mxCell>
        <mxCell id="3x7R4wl11121WuhaWvUq-14" value="Bulk &amp;amp; Batch Processing" style="strokeWidth=1;html=1;shape=mxgraph.flowchart.terminator;whiteSpace=wrap;fillColor=#62a0ea;strokeColor=#6c8ebf;fontFamily=Montserrat;fontSource=https%3A%2F%2Ffonts.googleapis.com%2Fcss%3Ffamily%3DMontserrat;fontSize=15;fontColor=#ffffff;" parent="1" vertex="1">
          <mxGeometry x="450" y="789.5" width="130" height="65" as="geometry" />
        </mxCell>
        <mxCell id="3x7R4wl11121WuhaWvUq-15" value="Connectors and Adapters" style="strokeWidth=1;html=1;shape=mxgraph.flowchart.terminator;whiteSpace=wrap;fillColor=#62a0ea;strokeColor=#6c8ebf;fontFamily=Montserrat;fontSource=https%3A%2F%2Ffonts.googleapis.com%2Fcss%3Ffamily%3DMontserrat;fontSize=15;fontColor=#ffffff;" parent="1" vertex="1">
          <mxGeometry x="800.25" y="789.5" width="132.5" height="65" as="geometry" />
        </mxCell>
        <mxCell id="3x7R4wl11121WuhaWvUq-16" value="&lt;div style=&quot;font-size: 20px;&quot;&gt;&lt;font style=&quot;font-size: 20px;&quot;&gt;&lt;b style=&quot;font-size: 20px;&quot;&gt;Systems of Engagement&lt;/b&gt;&lt;/font&gt;&lt;br style=&quot;font-size: 20px;&quot;&gt;&lt;/div&gt;" style="rounded=1;whiteSpace=wrap;html=1;align=center;verticalAlign=top;dashed=1;dashPattern=1 2;fontFamily=Montserrat;fontSource=https%3A%2F%2Ffonts.googleapis.com%2Fcss%3Ffamily%3DMontserrat;fontSize=20;fillColor=#1a5fb4;fontColor=#ffffff;" parent="1" vertex="1">
          <mxGeometry x="275" y="147" width="685" height="208" as="geometry" />
        </mxCell>
        <mxCell id="3x7R4wl11121WuhaWvUq-19" value="&lt;div&gt;Normalization&lt;/div&gt;&lt;div&gt;Mapping&lt;/div&gt;&lt;div&gt;Transform&lt;br&gt;&lt;/div&gt;" style="strokeWidth=1;html=1;shape=mxgraph.flowchart.terminator;whiteSpace=wrap;fillColor=#62a0ea;strokeColor=#6c8ebf;fontFamily=Montserrat;fontSource=https%3A%2F%2Ffonts.googleapis.com%2Fcss%3Ffamily%3DMontserrat;fontSize=15;fontColor=#ffffff;" parent="1" vertex="1">
          <mxGeometry x="610" y="789.5" width="160" height="65" as="geometry" />
        </mxCell>
        <mxCell id="3x7R4wl11121WuhaWvUq-20" value="Data Platform" style="rounded=1;whiteSpace=wrap;html=1;align=center;verticalAlign=top;dashed=1;dashPattern=1 2;fontFamily=Montserrat;fontSource=https%3A%2F%2Ffonts.googleapis.com%2Fcss%3Ffamily%3DMontserrat;fontSize=20;fillColor=#62a0ea;fontStyle=1" parent="1" vertex="1">
          <mxGeometry x="277.5" y="530" width="680" height="210" as="geometry" />
        </mxCell>
        <mxCell id="3x7R4wl11121WuhaWvUq-21" value="&lt;font style=&quot;font-size: 14px;&quot;&gt;API Manager&lt;/font&gt;" style="rounded=1;whiteSpace=wrap;html=1;absoluteArcSize=1;arcSize=14;strokeWidth=1;fillColor=#eeefff;fontColor=#3d3846;fontSize=14;fontFamily=Montserrat;fontSource=https%3A%2F%2Ffonts.googleapis.com%2Fcss%3Ffamily%3DMontserrat;" parent="1" vertex="1">
          <mxGeometry x="300" y="563.5" width="650" height="35" as="geometry" />
        </mxCell>
        <mxCell id="3x7R4wl11121WuhaWvUq-22" value="Raw Data Store" style="rounded=1;whiteSpace=wrap;html=1;absoluteArcSize=1;arcSize=14;strokeWidth=1;fillColor=#eeefff;fontColor=#3d3846;fontSize=14;fontFamily=Montserrat;fontSource=https%3A%2F%2Ffonts.googleapis.com%2Fcss%3Ffamily%3DMontserrat;" parent="1" vertex="1">
          <mxGeometry x="300" y="698" width="160" height="35" as="geometry" />
        </mxCell>
        <mxCell id="3x7R4wl11121WuhaWvUq-23" value="Terminology Services" style="rounded=1;whiteSpace=wrap;html=1;absoluteArcSize=1;arcSize=14;strokeWidth=1;fillColor=#eeefff;fontColor=#3d3846;fontSize=14;fontFamily=Montserrat;fontSource=https%3A%2F%2Ffonts.googleapis.com%2Fcss%3Ffamily%3DMontserrat;" parent="1" vertex="1">
          <mxGeometry x="300" y="610" width="160" height="35" as="geometry" />
        </mxCell>
        <mxCell id="3x7R4wl11121WuhaWvUq-24" value="EMPI" style="rounded=1;whiteSpace=wrap;html=1;absoluteArcSize=1;arcSize=14;strokeWidth=1;fillColor=#eeefff;fontColor=#3d3846;fontSize=14;fontFamily=Montserrat;fontSource=https%3A%2F%2Ffonts.googleapis.com%2Fcss%3Ffamily%3DMontserrat;" parent="1" vertex="1">
          <mxGeometry x="300" y="655" width="160" height="35" as="geometry" />
        </mxCell>
        <mxCell id="3x7R4wl11121WuhaWvUq-25" value="Consent Manager" style="rounded=1;whiteSpace=wrap;html=1;absoluteArcSize=1;arcSize=14;strokeWidth=1;fillColor=#eeefff;fontColor=#3d3846;fontSize=14;fontFamily=Montserrat;fontSource=https%3A%2F%2Ffonts.googleapis.com%2Fcss%3Ffamily%3DMontserrat;" parent="1" vertex="1">
          <mxGeometry x="470" y="610" width="159.5" height="35" as="geometry" />
        </mxCell>
        <mxCell id="3x7R4wl11121WuhaWvUq-26" value="&lt;font color=&quot;#ffffff&quot; face=&quot;Montserrat&quot; style=&quot;font-size: 15px;&quot;&gt;&lt;b style=&quot;font-size: 15px;&quot;&gt;Ingest &amp;amp; Index&lt;br style=&quot;font-size: 15px;&quot;&gt;&lt;/b&gt;&lt;/font&gt;" style="html=1;shadow=0;dashed=0;align=center;verticalAlign=middle;shape=mxgraph.arrows2.arrow;dy=0.6;dx=40;notch=0;rotation=-90;fillColor=#1a5fb4;fontSize=15;" parent="1" vertex="1">
          <mxGeometry x="122.25" y="593.75" width="221" height="82.5" as="geometry" />
        </mxCell>
        <mxCell id="3x7R4wl11121WuhaWvUq-27" value="Privacy Engine" style="rounded=1;whiteSpace=wrap;html=1;absoluteArcSize=1;arcSize=14;strokeWidth=1;fillColor=#eeefff;fontColor=#3d3846;fontSize=14;fontFamily=Montserrat;fontSource=https%3A%2F%2Ffonts.googleapis.com%2Fcss%3Ffamily%3DMontserrat;" parent="1" vertex="1">
          <mxGeometry x="470" y="655" width="155" height="35" as="geometry" />
        </mxCell>
        <mxCell id="3x7R4wl11121WuhaWvUq-28" value="Authorization" style="rounded=1;whiteSpace=wrap;html=1;absoluteArcSize=1;arcSize=14;strokeWidth=1;fillColor=#eeefff;fontColor=#3d3846;fontSize=14;fontFamily=Montserrat;fontSource=https%3A%2F%2Ffonts.googleapis.com%2Fcss%3Ffamily%3DMontserrat;" parent="1" vertex="1">
          <mxGeometry x="470" y="698" width="155" height="35" as="geometry" />
        </mxCell>
        <mxCell id="3x7R4wl11121WuhaWvUq-30" value="CDR (FHIR Server)" style="rounded=1;whiteSpace=wrap;html=1;absoluteArcSize=1;arcSize=14;strokeWidth=1;fillColor=#eeefff;fontColor=#3d3846;fontSize=14;fontFamily=Montserrat;fontSource=https%3A%2F%2Ffonts.googleapis.com%2Fcss%3Ffamily%3DMontserrat;" parent="1" vertex="1">
          <mxGeometry x="635" y="610" width="155" height="35" as="geometry" />
        </mxCell>
        <mxCell id="3x7R4wl11121WuhaWvUq-31" value="Document Registry" style="rounded=1;whiteSpace=wrap;html=1;absoluteArcSize=1;arcSize=14;strokeWidth=1;fillColor=#eeefff;fontColor=#3d3846;fontSize=14;fontFamily=Montserrat;fontSource=https%3A%2F%2Ffonts.googleapis.com%2Fcss%3Ffamily%3DMontserrat;" parent="1" vertex="1">
          <mxGeometry x="635" y="655" width="155" height="35" as="geometry" />
        </mxCell>
        <mxCell id="3x7R4wl11121WuhaWvUq-32" value="Document Repository" style="rounded=1;whiteSpace=wrap;html=1;absoluteArcSize=1;arcSize=14;strokeWidth=1;fillColor=#eeefff;fontColor=#3d3846;fontSize=14;fontFamily=Montserrat;fontSource=https%3A%2F%2Ffonts.googleapis.com%2Fcss%3Ffamily%3DMontserrat;" parent="1" vertex="1">
          <mxGeometry x="635" y="697" width="155" height="35" as="geometry" />
        </mxCell>
        <mxCell id="3x7R4wl11121WuhaWvUq-34" value="Audit" style="rounded=1;whiteSpace=wrap;html=1;absoluteArcSize=1;arcSize=14;strokeWidth=1;fillColor=#eeefff;fontColor=#3d3846;fontSize=14;fontFamily=Montserrat;fontSource=https%3A%2F%2Ffonts.googleapis.com%2Fcss%3Ffamily%3DMontserrat;" parent="1" vertex="1">
          <mxGeometry x="797.5" y="609.5" width="147.5" height="35" as="geometry" />
        </mxCell>
        <mxCell id="_SXIoyWeP93o5Hylsysg-2" value="&lt;div style=&quot;font-size: 20px;&quot;&gt;&lt;b&gt;Analytics&lt;/b&gt;&lt;br style=&quot;font-size: 20px;&quot;&gt;&lt;/div&gt;" style="rounded=1;whiteSpace=wrap;html=1;align=center;verticalAlign=top;dashed=1;dashPattern=1 2;fontFamily=Montserrat;fontSource=https%3A%2F%2Ffonts.googleapis.com%2Fcss%3Ffamily%3DMontserrat;fontSize=20;fillColor=#9a9996;fontColor=#ffffff;" vertex="1" parent="1">
          <mxGeometry x="275" y="362" width="685" height="156" as="geometry" />
        </mxCell>
        <mxCell id="3x7R4wl11121WuhaWvUq-35" value="Notifications" style="rounded=1;whiteSpace=wrap;html=1;absoluteArcSize=1;arcSize=14;strokeWidth=1;fillColor=#eeefff;fontColor=#3d3846;fontSize=14;fontFamily=Montserrat;fontSource=https%3A%2F%2Ffonts.googleapis.com%2Fcss%3Ffamily%3DMontserrat;" parent="1" vertex="1">
          <mxGeometry x="797.5" y="655" width="147.5" height="35" as="geometry" />
        </mxCell>
        <mxCell id="3x7R4wl11121WuhaWvUq-36" value="&lt;font color=&quot;#ffffff&quot; face=&quot;Montserrat&quot;&gt;&lt;b&gt;Inform &amp;amp; Intervene&lt;br&gt;&lt;/b&gt;&lt;/font&gt;" style="html=1;shadow=0;dashed=0;align=center;verticalAlign=middle;shape=mxgraph.arrows2.arrow;dy=0.6;dx=40;notch=0;rotation=-90;fillColor=#1a5fb4;fontSize=15;" parent="1" vertex="1">
          <mxGeometry x="135.88" y="208.5" width="196.25" height="85" as="geometry" />
        </mxCell>
        <mxCell id="3x7R4wl11121WuhaWvUq-37" value="Patient View" style="rounded=1;whiteSpace=wrap;html=1;absoluteArcSize=1;arcSize=14;strokeWidth=1;fillColor=#eeefff;fontColor=#3d3846;fontSize=14;fontFamily=Montserrat;fontSource=https%3A%2F%2Ffonts.googleapis.com%2Fcss%3Ffamily%3DMontserrat;" parent="1" vertex="1">
          <mxGeometry x="367" y="216" width="110" height="90" as="geometry" />
        </mxCell>
        <mxCell id="3x7R4wl11121WuhaWvUq-39" value="Clincial View" style="rounded=1;whiteSpace=wrap;html=1;absoluteArcSize=1;arcSize=14;strokeWidth=1;fillColor=#eeefff;fontColor=#3d3846;fontSize=14;fontFamily=Montserrat;fontSource=https%3A%2F%2Ffonts.googleapis.com%2Fcss%3Ffamily%3DMontserrat;" parent="1" vertex="1">
          <mxGeometry x="495" y="216" width="110" height="90" as="geometry" />
        </mxCell>
        <mxCell id="3x7R4wl11121WuhaWvUq-40" value="SwiftQueue" style="rounded=1;whiteSpace=wrap;html=1;absoluteArcSize=1;arcSize=14;strokeWidth=1;fillColor=#eeefff;fontColor=#3d3846;fontSize=14;fontFamily=Montserrat;fontSource=https%3A%2F%2Ffonts.googleapis.com%2Fcss%3Ffamily%3DMontserrat;" parent="1" vertex="1">
          <mxGeometry x="618" y="216" width="110" height="90" as="geometry" />
        </mxCell>
        <mxCell id="3x7R4wl11121WuhaWvUq-41" value="Document Central" style="rounded=1;whiteSpace=wrap;html=1;absoluteArcSize=1;arcSize=14;strokeWidth=1;fillColor=#eeefff;fontColor=#3d3846;fontSize=14;fontFamily=Montserrat;fontSource=https%3A%2F%2Ffonts.googleapis.com%2Fcss%3Ffamily%3DMontserrat;" parent="1" vertex="1">
          <mxGeometry x="743" y="216" width="110" height="90" as="geometry" />
        </mxCell>
        <mxCell id="3x7R4wl11121WuhaWvUq-42" value="&lt;div&gt;Clinalytix&lt;/div&gt;&lt;div&gt;Investigative&lt;/div&gt;&lt;div&gt;(Dashboards)&lt;br&gt;&lt;/div&gt;" style="rounded=1;whiteSpace=wrap;html=1;absoluteArcSize=1;arcSize=14;strokeWidth=1;fillColor=#eeefff;fontColor=#3d3846;fontSize=14;fontFamily=Montserrat;fontSource=https%3A%2F%2Ffonts.googleapis.com%2Fcss%3Ffamily%3DMontserrat;" parent="1" vertex="1">
          <mxGeometry x="367" y="399.5" width="110" height="90" as="geometry" />
        </mxCell>
        <mxCell id="3x7R4wl11121WuhaWvUq-43" value="Airflow" style="rounded=1;whiteSpace=wrap;html=1;absoluteArcSize=1;arcSize=14;strokeWidth=1;fillColor=#eeefff;fontColor=#3d3846;fontSize=14;fontFamily=Montserrat;fontSource=https%3A%2F%2Ffonts.googleapis.com%2Fcss%3Ffamily%3DMontserrat;" parent="1" vertex="1">
          <mxGeometry x="797.5" y="698" width="147.5" height="35" as="geometry" />
        </mxCell>
        <mxCell id="_SXIoyWeP93o5Hylsysg-1" value="&lt;div&gt;&lt;font color=&quot;#ffffff&quot; face=&quot;Montserrat&quot;&gt;&lt;b&gt;Insight&lt;/b&gt;&lt;/font&gt;&lt;/div&gt;" style="html=1;shadow=0;dashed=0;align=center;verticalAlign=middle;shape=mxgraph.arrows2.arrow;dy=0.6;dx=40;notch=0;rotation=-90;fillColor=#1a5fb4;fontSize=15;" vertex="1" parent="1">
          <mxGeometry x="156.25" y="402.75" width="151" height="80.5" as="geometry" />
        </mxCell>
        <mxCell id="_SXIoyWeP93o5Hylsysg-4" value="AI Ready" style="rounded=1;whiteSpace=wrap;html=1;absoluteArcSize=1;arcSize=14;strokeWidth=1;fillColor=#eeefff;fontColor=#3d3846;fontSize=14;fontFamily=Montserrat;fontSource=https%3A%2F%2Ffonts.googleapis.com%2Fcss%3Ffamily%3DMontserrat;" vertex="1" parent="1">
          <mxGeometry x="495" y="399.5" width="110" height="90" as="geometry" />
        </mxCell>
        <mxCell id="_SXIoyWeP93o5Hylsysg-5" value="BI4H&lt;br&gt;(Reporting)" style="rounded=1;whiteSpace=wrap;html=1;absoluteArcSize=1;arcSize=14;strokeWidth=1;fillColor=#eeefff;fontColor=#3d3846;fontSize=14;fontFamily=Montserrat;fontSource=https%3A%2F%2Ffonts.googleapis.com%2Fcss%3Ffamily%3DMontserrat;" vertex="1" parent="1">
          <mxGeometry x="618" y="399.5" width="110" height="90" as="geometry" />
        </mxCell>
        <mxCell id="_SXIoyWeP93o5Hylsysg-6" value="&lt;div&gt;Clinalytix&lt;/div&gt;&lt;div&gt;Research&lt;/div&gt;&lt;div&gt;(Research APIs)&lt;br&gt;&lt;/div&gt;" style="rounded=1;whiteSpace=wrap;html=1;absoluteArcSize=1;arcSize=14;strokeWidth=1;fillColor=#eeefff;fontColor=#3d3846;fontSize=14;fontFamily=Montserrat;fontSource=https%3A%2F%2Ffonts.googleapis.com%2Fcss%3Ffamily%3DMontserrat;" vertex="1" parent="1">
          <mxGeometry x="743" y="399.5" width="116" height="90" as="geometry" />
        </mxCell>
      </root>
    </mxGraphModel>
  </diagram>
</mxfile>
